%TF.GenerationSoftware,KiCad,Pcbnew,9.0.2*%
%TF.CreationDate,2025-08-14T21:49:20-07:00*%
%TF.ProjectId,natsys_conn1,6e617473-7973-45f6-936f-6e6e312e6b69,rev?*%
%TF.SameCoordinates,Original*%
%TF.FileFunction,Copper,L2,Bot*%
%TF.FilePolarity,Positive*%
%FSLAX46Y46*%
G04 Gerber Fmt 4.6, Leading zero omitted, Abs format (unit mm)*
G04 Created by KiCad (PCBNEW 9.0.2) date 2025-08-14 21:49:20*
%MOMM*%
%LPD*%
G01*
G04 APERTURE LIST*
G04 Aperture macros list*
%AMFreePoly0*
4,1,23,0.500000,-0.750000,0.000000,-0.750000,0.000000,-0.745722,-0.065263,-0.745722,-0.191342,-0.711940,-0.304381,-0.646677,-0.396677,-0.554381,-0.461940,-0.441342,-0.495722,-0.315263,-0.495722,-0.250000,-0.500000,-0.250000,-0.500000,0.250000,-0.495722,0.250000,-0.495722,0.315263,-0.461940,0.441342,-0.396677,0.554381,-0.304381,0.646677,-0.191342,0.711940,-0.065263,0.745722,0.000000,0.745722,
0.000000,0.750000,0.500000,0.750000,0.500000,-0.750000,0.500000,-0.750000,$1*%
%AMFreePoly1*
4,1,23,0.000000,0.745722,0.065263,0.745722,0.191342,0.711940,0.304381,0.646677,0.396677,0.554381,0.461940,0.441342,0.495722,0.315263,0.495722,0.250000,0.500000,0.250000,0.500000,-0.250000,0.495722,-0.250000,0.495722,-0.315263,0.461940,-0.441342,0.396677,-0.554381,0.304381,-0.646677,0.191342,-0.711940,0.065263,-0.745722,0.000000,-0.745722,0.000000,-0.750000,-0.500000,-0.750000,
-0.500000,0.750000,0.000000,0.750000,0.000000,0.745722,0.000000,0.745722,$1*%
G04 Aperture macros list end*
%TA.AperFunction,ComponentPad*%
%ADD10O,2.300000X1.500000*%
%TD*%
%TA.AperFunction,ComponentPad*%
%ADD11O,1.500000X2.300000*%
%TD*%
%TA.AperFunction,ComponentPad*%
%ADD12C,2.500000*%
%TD*%
%TA.AperFunction,SMDPad,CuDef*%
%ADD13FreePoly0,0.000000*%
%TD*%
%TA.AperFunction,SMDPad,CuDef*%
%ADD14FreePoly1,0.000000*%
%TD*%
%TA.AperFunction,ViaPad*%
%ADD15C,0.600000*%
%TD*%
%TA.AperFunction,Conductor*%
%ADD16C,0.508000*%
%TD*%
G04 APERTURE END LIST*
D10*
%TO.P,J2,10*%
%TO.N,N/C*%
X132811800Y-97623000D03*
%TO.P,J2,11*%
X132811800Y-92623000D03*
%TO.P,J2,R*%
%TO.N,RING1*%
X132811800Y-90123000D03*
D11*
%TO.P,J2,S*%
%TO.N,SLEEVE1*%
X127811800Y-95123000D03*
D10*
%TO.P,J2,T*%
%TO.N,TIP1*%
X132811800Y-100123000D03*
%TD*%
D12*
%TO.P,J3,R*%
%TO.N,RING1*%
X153466800Y-89179400D03*
%TO.P,J3,RN*%
%TO.N,Net-(J3-R)*%
X153466800Y-100609400D03*
%TO.P,J3,S*%
%TO.N,SLEEVE1*%
X159816800Y-89179400D03*
X159816800Y-100609400D03*
%TO.P,J3,T*%
%TO.N,TIP1*%
X147116800Y-89179400D03*
%TO.P,J3,TN*%
%TO.N,Net-(J3-T)*%
X147116800Y-100609400D03*
%TD*%
D13*
%TO.P,JP2,1,A*%
%TO.N,SLEEVE1*%
X149677600Y-99237800D03*
D14*
%TO.P,JP2,2,B*%
%TO.N,Net-(J3-R)*%
X150977600Y-99237800D03*
%TD*%
D13*
%TO.P,JP1,1,A*%
%TO.N,SLEEVE1*%
X142743400Y-99161600D03*
D14*
%TO.P,JP1,2,B*%
%TO.N,Net-(J3-T)*%
X144043400Y-99161600D03*
%TD*%
D15*
%TO.N,SLEEVE1*%
X149682200Y-97688400D03*
X141046200Y-99136200D03*
%TD*%
D16*
%TO.N,SLEEVE1*%
X149677600Y-99237800D02*
X149677600Y-97693000D01*
X141071600Y-99161600D02*
X141046200Y-99136200D01*
X142743400Y-99161600D02*
X141071600Y-99161600D01*
X149677600Y-97693000D02*
X149682200Y-97688400D01*
%TO.N,Net-(J3-R)*%
X152095200Y-99237800D02*
X153466800Y-100609400D01*
X150977600Y-99237800D02*
X152095200Y-99237800D01*
%TO.N,Net-(J3-T)*%
X144043400Y-99161600D02*
X145669000Y-99161600D01*
X145669000Y-99161600D02*
X147116800Y-100609400D01*
%TD*%
%TA.AperFunction,Conductor*%
%TO.N,SLEEVE1*%
G36*
X160610362Y-86911906D02*
G01*
X160741978Y-86924870D01*
X160766192Y-86929686D01*
X160886799Y-86966272D01*
X160909618Y-86975724D01*
X161020765Y-87035133D01*
X161041301Y-87048854D01*
X161138727Y-87128809D01*
X161156192Y-87146274D01*
X161236144Y-87243697D01*
X161249866Y-87264234D01*
X161309275Y-87375381D01*
X161318727Y-87398201D01*
X161355311Y-87518801D01*
X161360130Y-87543026D01*
X161373093Y-87674636D01*
X161373700Y-87686987D01*
X161373700Y-88006984D01*
X161353698Y-88075105D01*
X161300042Y-88121598D01*
X161239459Y-88132714D01*
X161218417Y-88131334D01*
X160494377Y-88855373D01*
X160481441Y-88824142D01*
X160399363Y-88701303D01*
X160294897Y-88596837D01*
X160172058Y-88514759D01*
X160140824Y-88501821D01*
X160864864Y-87777782D01*
X160864863Y-87777780D01*
X160791135Y-87721206D01*
X160592478Y-87606511D01*
X160592467Y-87606506D01*
X160380525Y-87518717D01*
X160380521Y-87518715D01*
X160158933Y-87459341D01*
X159931503Y-87429400D01*
X159702096Y-87429400D01*
X159474666Y-87459341D01*
X159253078Y-87518715D01*
X159253074Y-87518717D01*
X159041132Y-87606506D01*
X159041121Y-87606511D01*
X158842465Y-87721205D01*
X158768735Y-87777780D01*
X158768734Y-87777781D01*
X159492774Y-88501821D01*
X159461542Y-88514759D01*
X159338703Y-88596837D01*
X159234237Y-88701303D01*
X159152159Y-88824142D01*
X159139221Y-88855374D01*
X158415181Y-88131334D01*
X158415180Y-88131335D01*
X158358605Y-88205065D01*
X158243911Y-88403721D01*
X158243906Y-88403732D01*
X158156117Y-88615674D01*
X158156115Y-88615678D01*
X158096741Y-88837266D01*
X158066800Y-89064696D01*
X158066800Y-89294103D01*
X158096741Y-89521533D01*
X158156115Y-89743121D01*
X158156117Y-89743125D01*
X158243906Y-89955067D01*
X158243911Y-89955078D01*
X158358606Y-90153735D01*
X158415180Y-90227463D01*
X158415182Y-90227464D01*
X159139221Y-89503424D01*
X159152159Y-89534658D01*
X159234237Y-89657497D01*
X159338703Y-89761963D01*
X159461542Y-89844041D01*
X159492774Y-89856978D01*
X158768734Y-90581017D01*
X158768735Y-90581018D01*
X158842463Y-90637592D01*
X158842469Y-90637596D01*
X159041121Y-90752288D01*
X159041132Y-90752293D01*
X159253074Y-90840082D01*
X159253078Y-90840084D01*
X159474666Y-90899458D01*
X159702096Y-90929399D01*
X159702106Y-90929400D01*
X159931494Y-90929400D01*
X159931503Y-90929399D01*
X160158933Y-90899458D01*
X160380521Y-90840084D01*
X160380525Y-90840082D01*
X160592467Y-90752293D01*
X160592478Y-90752288D01*
X160791130Y-90637596D01*
X160791136Y-90637592D01*
X160864864Y-90581018D01*
X160864864Y-90581017D01*
X160140825Y-89856978D01*
X160172058Y-89844041D01*
X160294897Y-89761963D01*
X160399363Y-89657497D01*
X160481441Y-89534658D01*
X160494378Y-89503425D01*
X161218417Y-90227464D01*
X161239459Y-90226085D01*
X161308742Y-90241589D01*
X161358645Y-90292089D01*
X161373700Y-90351815D01*
X161373700Y-99436984D01*
X161353698Y-99505105D01*
X161300042Y-99551598D01*
X161239459Y-99562714D01*
X161218417Y-99561334D01*
X160494377Y-100285373D01*
X160481441Y-100254142D01*
X160399363Y-100131303D01*
X160294897Y-100026837D01*
X160172058Y-99944759D01*
X160140824Y-99931821D01*
X160864864Y-99207782D01*
X160864863Y-99207780D01*
X160791135Y-99151206D01*
X160592478Y-99036511D01*
X160592467Y-99036506D01*
X160380525Y-98948717D01*
X160380521Y-98948715D01*
X160158933Y-98889341D01*
X159931503Y-98859400D01*
X159702096Y-98859400D01*
X159474666Y-98889341D01*
X159253078Y-98948715D01*
X159253074Y-98948717D01*
X159041132Y-99036506D01*
X159041121Y-99036511D01*
X158842465Y-99151205D01*
X158768735Y-99207780D01*
X158768734Y-99207781D01*
X159492774Y-99931821D01*
X159461542Y-99944759D01*
X159338703Y-100026837D01*
X159234237Y-100131303D01*
X159152159Y-100254142D01*
X159139221Y-100285374D01*
X158415181Y-99561334D01*
X158415180Y-99561335D01*
X158358605Y-99635065D01*
X158243911Y-99833721D01*
X158243906Y-99833732D01*
X158156117Y-100045674D01*
X158156115Y-100045678D01*
X158096741Y-100267266D01*
X158066800Y-100494696D01*
X158066800Y-100724103D01*
X158096741Y-100951533D01*
X158156115Y-101173121D01*
X158156117Y-101173125D01*
X158243906Y-101385067D01*
X158243911Y-101385078D01*
X158358606Y-101583735D01*
X158415180Y-101657463D01*
X158415182Y-101657464D01*
X159139221Y-100933424D01*
X159152159Y-100964658D01*
X159234237Y-101087497D01*
X159338703Y-101191963D01*
X159461542Y-101274041D01*
X159492774Y-101286978D01*
X158768734Y-102011017D01*
X158768735Y-102011018D01*
X158842463Y-102067592D01*
X158842469Y-102067596D01*
X159041121Y-102182288D01*
X159041132Y-102182293D01*
X159253074Y-102270082D01*
X159253078Y-102270084D01*
X159474666Y-102329458D01*
X159702096Y-102359399D01*
X159702106Y-102359400D01*
X159931494Y-102359400D01*
X159931503Y-102359399D01*
X160158933Y-102329458D01*
X160380521Y-102270084D01*
X160380525Y-102270082D01*
X160592467Y-102182293D01*
X160592478Y-102182288D01*
X160791130Y-102067596D01*
X160791136Y-102067592D01*
X160864864Y-102011018D01*
X160864864Y-102011017D01*
X160140825Y-101286978D01*
X160172058Y-101274041D01*
X160294897Y-101191963D01*
X160399363Y-101087497D01*
X160481441Y-100964658D01*
X160494378Y-100933425D01*
X161218417Y-101657464D01*
X161239459Y-101656085D01*
X161252450Y-101658992D01*
X161265632Y-101657097D01*
X161286432Y-101666596D01*
X161308742Y-101671589D01*
X161318100Y-101681059D01*
X161330212Y-101686591D01*
X161342572Y-101705824D01*
X161358645Y-101722089D01*
X161362271Y-101736475D01*
X161368596Y-101746317D01*
X161373700Y-101781815D01*
X161373700Y-101974812D01*
X161373093Y-101987163D01*
X161360130Y-102118773D01*
X161355311Y-102142998D01*
X161318727Y-102263598D01*
X161309275Y-102286418D01*
X161249866Y-102397565D01*
X161236144Y-102418102D01*
X161156192Y-102515525D01*
X161138725Y-102532992D01*
X161041302Y-102612944D01*
X161020765Y-102626666D01*
X160909618Y-102686075D01*
X160886798Y-102695527D01*
X160766198Y-102732111D01*
X160741973Y-102736930D01*
X160646830Y-102746301D01*
X160610361Y-102749893D01*
X160598013Y-102750500D01*
X154190087Y-102750500D01*
X154121966Y-102730498D01*
X154075473Y-102676842D01*
X154065369Y-102606568D01*
X154094863Y-102541988D01*
X154141866Y-102508092D01*
X154358816Y-102418229D01*
X154587284Y-102286323D01*
X154796581Y-102125724D01*
X154983124Y-101939181D01*
X155143723Y-101729884D01*
X155275629Y-101501416D01*
X155376586Y-101257685D01*
X155444865Y-101002862D01*
X155479300Y-100741306D01*
X155479300Y-100477494D01*
X155444865Y-100215938D01*
X155376586Y-99961115D01*
X155275629Y-99717384D01*
X155275623Y-99717375D01*
X155275622Y-99717371D01*
X155143725Y-99488919D01*
X155123359Y-99462378D01*
X154983124Y-99279619D01*
X154983118Y-99279613D01*
X154983114Y-99279608D01*
X154796591Y-99093085D01*
X154796585Y-99093080D01*
X154796581Y-99093076D01*
X154587284Y-98932477D01*
X154587283Y-98932476D01*
X154587280Y-98932474D01*
X154358828Y-98800577D01*
X154358820Y-98800573D01*
X154358816Y-98800571D01*
X154115085Y-98699614D01*
X153860262Y-98631335D01*
X153860260Y-98631334D01*
X153860254Y-98631333D01*
X153598708Y-98596900D01*
X153598706Y-98596900D01*
X153334894Y-98596900D01*
X153334891Y-98596900D01*
X153073340Y-98631334D01*
X153073336Y-98631334D01*
X153027622Y-98643583D01*
X152956646Y-98641892D01*
X152905920Y-98610972D01*
X152743181Y-98448233D01*
X152576693Y-98336990D01*
X152460039Y-98288670D01*
X152391705Y-98260365D01*
X152391702Y-98260364D01*
X152195319Y-98221300D01*
X152195316Y-98221300D01*
X152047440Y-98221300D01*
X151979319Y-98201298D01*
X151948930Y-98173860D01*
X151920404Y-98138090D01*
X151920403Y-98138089D01*
X151879974Y-98097660D01*
X151827311Y-98044997D01*
X151806640Y-98025084D01*
X151806636Y-98025080D01*
X151668359Y-97923027D01*
X151668350Y-97923021D01*
X151603707Y-97885700D01*
X151554343Y-97857200D01*
X151529225Y-97843318D01*
X151500910Y-97832205D01*
X151369240Y-97780527D01*
X151292646Y-97760004D01*
X151242073Y-97746453D01*
X151224247Y-97742032D01*
X151214209Y-97739542D01*
X151043428Y-97720300D01*
X151043426Y-97720300D01*
X150477600Y-97720300D01*
X150477599Y-97720300D01*
X150452757Y-97723099D01*
X150306815Y-97739543D01*
X150306812Y-97739543D01*
X150306812Y-97739544D01*
X150144594Y-97796305D01*
X150047684Y-97857199D01*
X149999072Y-97887744D01*
X149999070Y-97887745D01*
X149999068Y-97887747D01*
X149999067Y-97887747D01*
X149877547Y-98009267D01*
X149877547Y-98009268D01*
X149877545Y-98009270D01*
X149877544Y-98009272D01*
X149847614Y-98056903D01*
X149786105Y-98154794D01*
X149729344Y-98317012D01*
X149729343Y-98317015D01*
X149710100Y-98487800D01*
X149710100Y-99987800D01*
X149729343Y-100158585D01*
X149729344Y-100158587D01*
X149786105Y-100320805D01*
X149807217Y-100354404D01*
X149877544Y-100466328D01*
X149877547Y-100466331D01*
X149877547Y-100466332D01*
X149999067Y-100587852D01*
X149999069Y-100587853D01*
X149999072Y-100587856D01*
X150144594Y-100679294D01*
X150306815Y-100736057D01*
X150459841Y-100753299D01*
X150477599Y-100755300D01*
X150477600Y-100755300D01*
X151043425Y-100755300D01*
X151043426Y-100755300D01*
X151072128Y-100754763D01*
X151242073Y-100729147D01*
X151306744Y-100711818D01*
X151377716Y-100713506D01*
X151436513Y-100753299D01*
X151464275Y-100817077D01*
X151488733Y-101002855D01*
X151488735Y-101002862D01*
X151557014Y-101257685D01*
X151657971Y-101501416D01*
X151657972Y-101501417D01*
X151657977Y-101501428D01*
X151789874Y-101729880D01*
X151789876Y-101729883D01*
X151789877Y-101729884D01*
X151950476Y-101939181D01*
X151950480Y-101939185D01*
X151950485Y-101939191D01*
X152137008Y-102125714D01*
X152137013Y-102125718D01*
X152137019Y-102125724D01*
X152325153Y-102270084D01*
X152346319Y-102286325D01*
X152574771Y-102418222D01*
X152574775Y-102418223D01*
X152574784Y-102418229D01*
X152791732Y-102508092D01*
X152847012Y-102552639D01*
X152869433Y-102620003D01*
X152851875Y-102688794D01*
X152799913Y-102737172D01*
X152743513Y-102750500D01*
X147840087Y-102750500D01*
X147771966Y-102730498D01*
X147725473Y-102676842D01*
X147715369Y-102606568D01*
X147744863Y-102541988D01*
X147791866Y-102508092D01*
X148008816Y-102418229D01*
X148237284Y-102286323D01*
X148446581Y-102125724D01*
X148633124Y-101939181D01*
X148793723Y-101729884D01*
X148925629Y-101501416D01*
X149026586Y-101257685D01*
X149094865Y-101002862D01*
X149129300Y-100741306D01*
X149129300Y-100477494D01*
X149094865Y-100215938D01*
X149026586Y-99961115D01*
X148925629Y-99717384D01*
X148925623Y-99717375D01*
X148925622Y-99717371D01*
X148793725Y-99488919D01*
X148793723Y-99488916D01*
X148633124Y-99279619D01*
X148633118Y-99279613D01*
X148633114Y-99279608D01*
X148446591Y-99093085D01*
X148446585Y-99093080D01*
X148446581Y-99093076D01*
X148237284Y-98932477D01*
X148237283Y-98932476D01*
X148237280Y-98932474D01*
X148008828Y-98800577D01*
X148008820Y-98800573D01*
X148008816Y-98800571D01*
X147765085Y-98699614D01*
X147510262Y-98631335D01*
X147510260Y-98631334D01*
X147510254Y-98631333D01*
X147248708Y-98596900D01*
X147248706Y-98596900D01*
X146984894Y-98596900D01*
X146984891Y-98596900D01*
X146723340Y-98631334D01*
X146723336Y-98631334D01*
X146677622Y-98643583D01*
X146606646Y-98641892D01*
X146555920Y-98610972D01*
X146316981Y-98372033D01*
X146150493Y-98260790D01*
X146006867Y-98201298D01*
X145965505Y-98184165D01*
X145965502Y-98184164D01*
X145769119Y-98145100D01*
X145769116Y-98145100D01*
X145113240Y-98145100D01*
X145045119Y-98125098D01*
X145014730Y-98097660D01*
X144986204Y-98061890D01*
X144986203Y-98061889D01*
X144949394Y-98025080D01*
X144893111Y-97968797D01*
X144872440Y-97948884D01*
X144872436Y-97948880D01*
X144734159Y-97846827D01*
X144734150Y-97846821D01*
X144669507Y-97809500D01*
X144620143Y-97781000D01*
X144595025Y-97767118D01*
X144531118Y-97742036D01*
X144435040Y-97704327D01*
X144358446Y-97683804D01*
X144307873Y-97670253D01*
X144291121Y-97666098D01*
X144280009Y-97663342D01*
X144109228Y-97644100D01*
X144109226Y-97644100D01*
X143543400Y-97644100D01*
X143543399Y-97644100D01*
X143518557Y-97646899D01*
X143372615Y-97663343D01*
X143372612Y-97663343D01*
X143372612Y-97663344D01*
X143210394Y-97720105D01*
X143114235Y-97780527D01*
X143064872Y-97811544D01*
X143064870Y-97811545D01*
X143064868Y-97811547D01*
X143064867Y-97811547D01*
X142943347Y-97933067D01*
X142943347Y-97933068D01*
X142943345Y-97933070D01*
X142943344Y-97933072D01*
X142915630Y-97977178D01*
X142851905Y-98078594D01*
X142795144Y-98240812D01*
X142795143Y-98240815D01*
X142775900Y-98411600D01*
X142775900Y-99911600D01*
X142795143Y-100082385D01*
X142795144Y-100082387D01*
X142851905Y-100244605D01*
X142866144Y-100267266D01*
X142943344Y-100390128D01*
X142943347Y-100390131D01*
X142943347Y-100390132D01*
X143064867Y-100511652D01*
X143064869Y-100511653D01*
X143064872Y-100511656D01*
X143210394Y-100603094D01*
X143372615Y-100659857D01*
X143531820Y-100677795D01*
X143543399Y-100679100D01*
X143543400Y-100679100D01*
X144109225Y-100679100D01*
X144109226Y-100679100D01*
X144137928Y-100678563D01*
X144307873Y-100652947D01*
X144435040Y-100618872D01*
X144462618Y-100610927D01*
X144620143Y-100542200D01*
X144734157Y-100476374D01*
X144758742Y-100461560D01*
X144893111Y-100354403D01*
X144893118Y-100354395D01*
X144895751Y-100352044D01*
X144896469Y-100352848D01*
X144954794Y-100320981D01*
X145025611Y-100326027D01*
X145082458Y-100368559D01*
X145107287Y-100435072D01*
X145106532Y-100460538D01*
X145104300Y-100477486D01*
X145104300Y-100741308D01*
X145138733Y-101002854D01*
X145138734Y-101002860D01*
X145138735Y-101002862D01*
X145207014Y-101257685D01*
X145307971Y-101501416D01*
X145307972Y-101501417D01*
X145307977Y-101501428D01*
X145439874Y-101729880D01*
X145439876Y-101729883D01*
X145439877Y-101729884D01*
X145600476Y-101939181D01*
X145600480Y-101939185D01*
X145600485Y-101939191D01*
X145787008Y-102125714D01*
X145787013Y-102125718D01*
X145787019Y-102125724D01*
X145975153Y-102270084D01*
X145996319Y-102286325D01*
X146224771Y-102418222D01*
X146224775Y-102418223D01*
X146224784Y-102418229D01*
X146441732Y-102508092D01*
X146497012Y-102552639D01*
X146519433Y-102620003D01*
X146501875Y-102688794D01*
X146449913Y-102737172D01*
X146393513Y-102750500D01*
X125126587Y-102750500D01*
X125114238Y-102749893D01*
X125066053Y-102745147D01*
X124982626Y-102736930D01*
X124958401Y-102732111D01*
X124837801Y-102695527D01*
X124814981Y-102686075D01*
X124703834Y-102626666D01*
X124683297Y-102612944D01*
X124585874Y-102532992D01*
X124568407Y-102515525D01*
X124562306Y-102508091D01*
X124488454Y-102418101D01*
X124474733Y-102397565D01*
X124454333Y-102359400D01*
X124415323Y-102286416D01*
X124405872Y-102263598D01*
X124369286Y-102142992D01*
X124364470Y-102118778D01*
X124351507Y-101987162D01*
X124350900Y-101974812D01*
X124350900Y-100631136D01*
X124370902Y-100563015D01*
X124424558Y-100516522D01*
X124494832Y-100506418D01*
X124559412Y-100535912D01*
X124581662Y-100561131D01*
X124613914Y-100609398D01*
X124651173Y-100665161D01*
X124651178Y-100665167D01*
X124769632Y-100783621D01*
X124769638Y-100783626D01*
X124908937Y-100876703D01*
X125063718Y-100940816D01*
X125228033Y-100973500D01*
X125228034Y-100973500D01*
X125395566Y-100973500D01*
X125395567Y-100973500D01*
X125559882Y-100940816D01*
X125714663Y-100876703D01*
X125853962Y-100783626D01*
X125972426Y-100665162D01*
X126065503Y-100525863D01*
X126129616Y-100371082D01*
X126162300Y-100206767D01*
X126162300Y-100039233D01*
X126162299Y-100039230D01*
X126961300Y-100039230D01*
X126961300Y-100206769D01*
X126970723Y-100254142D01*
X126993984Y-100371082D01*
X127058097Y-100525863D01*
X127082921Y-100563015D01*
X127151173Y-100665161D01*
X127151178Y-100665167D01*
X127269632Y-100783621D01*
X127269638Y-100783626D01*
X127408937Y-100876703D01*
X127563718Y-100940816D01*
X127728033Y-100973500D01*
X127728034Y-100973500D01*
X127895566Y-100973500D01*
X127895567Y-100973500D01*
X128059882Y-100940816D01*
X128214663Y-100876703D01*
X128353962Y-100783626D01*
X128472426Y-100665162D01*
X128565503Y-100525863D01*
X128629616Y-100371082D01*
X128662300Y-100206767D01*
X128662300Y-100039233D01*
X128629616Y-99874918D01*
X128565503Y-99720137D01*
X128472426Y-99580838D01*
X128472421Y-99580832D01*
X128353967Y-99462378D01*
X128353961Y-99462373D01*
X128214664Y-99369298D01*
X128214665Y-99369298D01*
X128214663Y-99369297D01*
X128105220Y-99323964D01*
X128059885Y-99305185D01*
X128059883Y-99305184D01*
X128059882Y-99305184D01*
X127977168Y-99288731D01*
X127895569Y-99272500D01*
X127895567Y-99272500D01*
X127728033Y-99272500D01*
X127728030Y-99272500D01*
X127605630Y-99296847D01*
X127563718Y-99305184D01*
X127563717Y-99305184D01*
X127563714Y-99305185D01*
X127408935Y-99369298D01*
X127269638Y-99462373D01*
X127269632Y-99462378D01*
X127151178Y-99580832D01*
X127151173Y-99580838D01*
X127058098Y-99720135D01*
X126993985Y-99874914D01*
X126961300Y-100039230D01*
X126162299Y-100039230D01*
X126129616Y-99874918D01*
X126065503Y-99720137D01*
X125972426Y-99580838D01*
X125972421Y-99580832D01*
X125853967Y-99462378D01*
X125853961Y-99462373D01*
X125714664Y-99369298D01*
X125714665Y-99369298D01*
X125714663Y-99369297D01*
X125605220Y-99323964D01*
X125559885Y-99305185D01*
X125559883Y-99305184D01*
X125559882Y-99305184D01*
X125477168Y-99288731D01*
X125395569Y-99272500D01*
X125395567Y-99272500D01*
X125228033Y-99272500D01*
X125228030Y-99272500D01*
X125105630Y-99296847D01*
X125063718Y-99305184D01*
X125063717Y-99305184D01*
X125063714Y-99305185D01*
X124908935Y-99369298D01*
X124769638Y-99462373D01*
X124769632Y-99462378D01*
X124651178Y-99580832D01*
X124651173Y-99580838D01*
X124581665Y-99684865D01*
X124527188Y-99730393D01*
X124456745Y-99739241D01*
X124392701Y-99708599D01*
X124355389Y-99648198D01*
X124350900Y-99614863D01*
X124350900Y-94624626D01*
X126561800Y-94624626D01*
X126561800Y-95621373D01*
X126592580Y-95815714D01*
X126634994Y-95946251D01*
X126634995Y-95946251D01*
X127411800Y-95169446D01*
X127411800Y-95525661D01*
X127439059Y-95627394D01*
X127491720Y-95718606D01*
X127530732Y-95757618D01*
X126904693Y-96383658D01*
X126904693Y-96383660D01*
X126997473Y-96476440D01*
X127156659Y-96592097D01*
X127331965Y-96681419D01*
X127519087Y-96742219D01*
X127713426Y-96773000D01*
X127910174Y-96773000D01*
X128104512Y-96742219D01*
X128291634Y-96681419D01*
X128466940Y-96592097D01*
X128626126Y-96476440D01*
X128718907Y-96383660D01*
X128718907Y-96383658D01*
X128092867Y-95757618D01*
X128131880Y-95718606D01*
X128184541Y-95627394D01*
X128211800Y-95525661D01*
X128211800Y-95169449D01*
X128988602Y-95946251D01*
X128988603Y-95946251D01*
X129031019Y-95815712D01*
X129061800Y-95621373D01*
X129061800Y-94624626D01*
X129031019Y-94430287D01*
X128988603Y-94299747D01*
X128211800Y-95076550D01*
X128211800Y-94720339D01*
X128184541Y-94618606D01*
X128131880Y-94527394D01*
X128092867Y-94488381D01*
X128718907Y-93862342D01*
X128718907Y-93862340D01*
X128626126Y-93769559D01*
X128466940Y-93653902D01*
X128291634Y-93564580D01*
X128104512Y-93503780D01*
X127910174Y-93473000D01*
X127713426Y-93473000D01*
X127519087Y-93503780D01*
X127331965Y-93564580D01*
X127156659Y-93653902D01*
X126997473Y-93769559D01*
X126904693Y-93862340D01*
X126904693Y-93862342D01*
X127530732Y-94488381D01*
X127491720Y-94527394D01*
X127439059Y-94618606D01*
X127411800Y-94720339D01*
X127411800Y-95076551D01*
X126634996Y-94299747D01*
X126634994Y-94299747D01*
X126592580Y-94430285D01*
X126561800Y-94624626D01*
X124350900Y-94624626D01*
X124350900Y-90631136D01*
X124370902Y-90563015D01*
X124424558Y-90516522D01*
X124494832Y-90506418D01*
X124559412Y-90535912D01*
X124581662Y-90561131D01*
X124594950Y-90581017D01*
X124651173Y-90665161D01*
X124651178Y-90665167D01*
X124769632Y-90783621D01*
X124769638Y-90783626D01*
X124908937Y-90876703D01*
X125063718Y-90940816D01*
X125228033Y-90973500D01*
X125228034Y-90973500D01*
X125395566Y-90973500D01*
X125395567Y-90973500D01*
X125559882Y-90940816D01*
X125714663Y-90876703D01*
X125853962Y-90783626D01*
X125972426Y-90665162D01*
X126065503Y-90525863D01*
X126129616Y-90371082D01*
X126162300Y-90206767D01*
X126162300Y-90039233D01*
X126162299Y-90039230D01*
X126961300Y-90039230D01*
X126961300Y-90206769D01*
X126968315Y-90242036D01*
X126993984Y-90371082D01*
X127058097Y-90525863D01*
X127082921Y-90563015D01*
X127151173Y-90665161D01*
X127151178Y-90665167D01*
X127269632Y-90783621D01*
X127269638Y-90783626D01*
X127408937Y-90876703D01*
X127563718Y-90940816D01*
X127728033Y-90973500D01*
X127728034Y-90973500D01*
X127895566Y-90973500D01*
X127895567Y-90973500D01*
X128059882Y-90940816D01*
X128214663Y-90876703D01*
X128353962Y-90783626D01*
X128472426Y-90665162D01*
X128565503Y-90525863D01*
X128629616Y-90371082D01*
X128662300Y-90206767D01*
X128662300Y-90039233D01*
X128662298Y-90039222D01*
X128659191Y-90023599D01*
X128659190Y-90023595D01*
X128655285Y-90003964D01*
X130899300Y-90003964D01*
X130899300Y-90242036D01*
X130933124Y-90455589D01*
X130936544Y-90477183D01*
X131007549Y-90695714D01*
X131010111Y-90703599D01*
X131118194Y-90915723D01*
X131258130Y-91108328D01*
X131258132Y-91108330D01*
X131258134Y-91108333D01*
X131426462Y-91276661D01*
X131426468Y-91276666D01*
X131426472Y-91276670D01*
X131426475Y-91276672D01*
X131427079Y-91277188D01*
X131427248Y-91277447D01*
X131429972Y-91280171D01*
X131429399Y-91280743D01*
X131465888Y-91336639D01*
X131466396Y-91407634D01*
X131429732Y-91465589D01*
X131429972Y-91465829D01*
X131428906Y-91466894D01*
X131428440Y-91467632D01*
X131427079Y-91468812D01*
X131426462Y-91469338D01*
X131258134Y-91637666D01*
X131258132Y-91637669D01*
X131118196Y-91830273D01*
X131010112Y-92042399D01*
X131010109Y-92042405D01*
X130936544Y-92268816D01*
X130936543Y-92268821D01*
X130936543Y-92268822D01*
X130899300Y-92503964D01*
X130899300Y-92742036D01*
X130936543Y-92977178D01*
X130936544Y-92977183D01*
X131010109Y-93203594D01*
X131010111Y-93203599D01*
X131118194Y-93415723D01*
X131258130Y-93608328D01*
X131258132Y-93608330D01*
X131258134Y-93608333D01*
X131426466Y-93776665D01*
X131426469Y-93776667D01*
X131426472Y-93776670D01*
X131619077Y-93916606D01*
X131831201Y-94024689D01*
X132057616Y-94098255D01*
X132057617Y-94098255D01*
X132057622Y-94098257D01*
X132292764Y-94135500D01*
X132292767Y-94135500D01*
X132343473Y-94135500D01*
X132411594Y-94155502D01*
X132458087Y-94209158D01*
X132468191Y-94279432D01*
X132438697Y-94344012D01*
X132413475Y-94366265D01*
X132269638Y-94462373D01*
X132269632Y-94462378D01*
X132151178Y-94580832D01*
X132151173Y-94580838D01*
X132058098Y-94720135D01*
X131993985Y-94874914D01*
X131961300Y-95039230D01*
X131961300Y-95039233D01*
X131961300Y-95206767D01*
X131993984Y-95371082D01*
X132058097Y-95525863D01*
X132058098Y-95525864D01*
X132151173Y-95665161D01*
X132151178Y-95665167D01*
X132269632Y-95783621D01*
X132269638Y-95783626D01*
X132413475Y-95879735D01*
X132459003Y-95934212D01*
X132467851Y-96004655D01*
X132437209Y-96068699D01*
X132376808Y-96106010D01*
X132343473Y-96110500D01*
X132292764Y-96110500D01*
X132057622Y-96147743D01*
X132057616Y-96147744D01*
X131831205Y-96221309D01*
X131831199Y-96221312D01*
X131619073Y-96329396D01*
X131426469Y-96469332D01*
X131426466Y-96469334D01*
X131258134Y-96637666D01*
X131258132Y-96637669D01*
X131118196Y-96830273D01*
X131010112Y-97042399D01*
X131010109Y-97042405D01*
X130936544Y-97268816D01*
X130936543Y-97268821D01*
X130936543Y-97268822D01*
X130899300Y-97503964D01*
X130899300Y-97742036D01*
X130935216Y-97968797D01*
X130936544Y-97977183D01*
X131009363Y-98201298D01*
X131010111Y-98203599D01*
X131118194Y-98415723D01*
X131258130Y-98608328D01*
X131258132Y-98608330D01*
X131258134Y-98608333D01*
X131426462Y-98776661D01*
X131426468Y-98776666D01*
X131426472Y-98776670D01*
X131426475Y-98776672D01*
X131427079Y-98777188D01*
X131427248Y-98777447D01*
X131429972Y-98780171D01*
X131429399Y-98780743D01*
X131465888Y-98836639D01*
X131466396Y-98907634D01*
X131429732Y-98965589D01*
X131429972Y-98965829D01*
X131428906Y-98966894D01*
X131428440Y-98967632D01*
X131427079Y-98968812D01*
X131426462Y-98969338D01*
X131258134Y-99137666D01*
X131258132Y-99137669D01*
X131118196Y-99330273D01*
X131010112Y-99542399D01*
X131010109Y-99542405D01*
X130936544Y-99768816D01*
X130936543Y-99768821D01*
X130936543Y-99768822D01*
X130899300Y-100003964D01*
X130899300Y-100242036D01*
X130934070Y-100461564D01*
X130936544Y-100477183D01*
X131003505Y-100683269D01*
X131010111Y-100703599D01*
X131118194Y-100915723D01*
X131118196Y-100915726D01*
X131152509Y-100962954D01*
X131258130Y-101108328D01*
X131258132Y-101108330D01*
X131258134Y-101108333D01*
X131426466Y-101276665D01*
X131426469Y-101276667D01*
X131426472Y-101276670D01*
X131619077Y-101416606D01*
X131831201Y-101524689D01*
X132057616Y-101598255D01*
X132057617Y-101598255D01*
X132057622Y-101598257D01*
X132292764Y-101635500D01*
X132292767Y-101635500D01*
X133330833Y-101635500D01*
X133330836Y-101635500D01*
X133565978Y-101598257D01*
X133792399Y-101524689D01*
X134004523Y-101416606D01*
X134197128Y-101276670D01*
X134365470Y-101108328D01*
X134505406Y-100915723D01*
X134613489Y-100703599D01*
X134687057Y-100477178D01*
X134724300Y-100242036D01*
X134724300Y-100003964D01*
X134687057Y-99768822D01*
X134613489Y-99542401D01*
X134505406Y-99330277D01*
X134365470Y-99137672D01*
X134365467Y-99137669D01*
X134365465Y-99137666D01*
X134197140Y-98969341D01*
X134197133Y-98969335D01*
X134197128Y-98969330D01*
X134197122Y-98969325D01*
X134196531Y-98968821D01*
X134196363Y-98968564D01*
X134193628Y-98965829D01*
X134194202Y-98965254D01*
X134157715Y-98909375D01*
X134157199Y-98838380D01*
X134193864Y-98780407D01*
X134193628Y-98780171D01*
X134194679Y-98779119D01*
X134195149Y-98778377D01*
X134196531Y-98777179D01*
X134197114Y-98776679D01*
X134197128Y-98776670D01*
X134365470Y-98608328D01*
X134505406Y-98415723D01*
X134613489Y-98203599D01*
X134687057Y-97977178D01*
X134724300Y-97742036D01*
X134724300Y-97503964D01*
X134687057Y-97268822D01*
X134613489Y-97042401D01*
X134505406Y-96830277D01*
X134365470Y-96637672D01*
X134365467Y-96637669D01*
X134365465Y-96637666D01*
X134197133Y-96469334D01*
X134197130Y-96469332D01*
X134197128Y-96469330D01*
X134004523Y-96329394D01*
X133792399Y-96221311D01*
X133792396Y-96221310D01*
X133792394Y-96221309D01*
X133565982Y-96147744D01*
X133565985Y-96147744D01*
X133522206Y-96140810D01*
X133330836Y-96110500D01*
X133280127Y-96110500D01*
X133212006Y-96090498D01*
X133165513Y-96036842D01*
X133155409Y-95966568D01*
X133184903Y-95901988D01*
X133210125Y-95879735D01*
X133220205Y-95873000D01*
X133353962Y-95783626D01*
X133472426Y-95665162D01*
X133565503Y-95525863D01*
X133629616Y-95371082D01*
X133662300Y-95206767D01*
X133662300Y-95039233D01*
X133629616Y-94874918D01*
X133565503Y-94720137D01*
X133472426Y-94580838D01*
X133472421Y-94580832D01*
X133353967Y-94462378D01*
X133353961Y-94462373D01*
X133210125Y-94366265D01*
X133164597Y-94311788D01*
X133155749Y-94241345D01*
X133186391Y-94177301D01*
X133246792Y-94139990D01*
X133280127Y-94135500D01*
X133330833Y-94135500D01*
X133330836Y-94135500D01*
X133565978Y-94098257D01*
X133792399Y-94024689D01*
X134004523Y-93916606D01*
X134197128Y-93776670D01*
X134365470Y-93608328D01*
X134505406Y-93415723D01*
X134613489Y-93203599D01*
X134687057Y-92977178D01*
X134724300Y-92742036D01*
X134724300Y-92503964D01*
X134687057Y-92268822D01*
X134613489Y-92042401D01*
X134505406Y-91830277D01*
X134365470Y-91637672D01*
X134365467Y-91637669D01*
X134365465Y-91637666D01*
X134197140Y-91469341D01*
X134197133Y-91469335D01*
X134197128Y-91469330D01*
X134197122Y-91469325D01*
X134196531Y-91468821D01*
X134196363Y-91468564D01*
X134193628Y-91465829D01*
X134194202Y-91465254D01*
X134157715Y-91409375D01*
X134157199Y-91338380D01*
X134193864Y-91280407D01*
X134193628Y-91280171D01*
X134194679Y-91279119D01*
X134195149Y-91278377D01*
X134196531Y-91277179D01*
X134197114Y-91276679D01*
X134197128Y-91276670D01*
X134365470Y-91108328D01*
X134505406Y-90915723D01*
X134613489Y-90703599D01*
X134687057Y-90477178D01*
X134724300Y-90242036D01*
X134724300Y-90003964D01*
X134687057Y-89768822D01*
X134613489Y-89542401D01*
X134505406Y-89330277D01*
X134365470Y-89137672D01*
X134365467Y-89137669D01*
X134365465Y-89137666D01*
X134275290Y-89047491D01*
X145104300Y-89047491D01*
X145104300Y-89311308D01*
X145138733Y-89572854D01*
X145138734Y-89572860D01*
X145138735Y-89572862D01*
X145207014Y-89827685D01*
X145307971Y-90071416D01*
X145307972Y-90071417D01*
X145307977Y-90071428D01*
X145439874Y-90299880D01*
X145439876Y-90299883D01*
X145439877Y-90299884D01*
X145600476Y-90509181D01*
X145600480Y-90509185D01*
X145600485Y-90509191D01*
X145787008Y-90695714D01*
X145787013Y-90695718D01*
X145787019Y-90695724D01*
X145975153Y-90840084D01*
X145996319Y-90856325D01*
X146224771Y-90988222D01*
X146224775Y-90988223D01*
X146224784Y-90988229D01*
X146468515Y-91089186D01*
X146723338Y-91157465D01*
X146723344Y-91157465D01*
X146723345Y-91157466D01*
X146753354Y-91161416D01*
X146984894Y-91191900D01*
X146984901Y-91191900D01*
X147248699Y-91191900D01*
X147248706Y-91191900D01*
X147510262Y-91157465D01*
X147765085Y-91089186D01*
X148008816Y-90988229D01*
X148237284Y-90856323D01*
X148446581Y-90695724D01*
X148633124Y-90509181D01*
X148793723Y-90299884D01*
X148925629Y-90071416D01*
X149026586Y-89827685D01*
X149094865Y-89572862D01*
X149129300Y-89311306D01*
X149129300Y-89047494D01*
X149129300Y-89047491D01*
X151454300Y-89047491D01*
X151454300Y-89311308D01*
X151488733Y-89572854D01*
X151488734Y-89572860D01*
X151488735Y-89572862D01*
X151557014Y-89827685D01*
X151657971Y-90071416D01*
X151657972Y-90071417D01*
X151657977Y-90071428D01*
X151789874Y-90299880D01*
X151789876Y-90299883D01*
X151789877Y-90299884D01*
X151950476Y-90509181D01*
X151950480Y-90509185D01*
X151950485Y-90509191D01*
X152137008Y-90695714D01*
X152137013Y-90695718D01*
X152137019Y-90695724D01*
X152325153Y-90840084D01*
X152346319Y-90856325D01*
X152574771Y-90988222D01*
X152574775Y-90988223D01*
X152574784Y-90988229D01*
X152818515Y-91089186D01*
X153073338Y-91157465D01*
X153073344Y-91157465D01*
X153073345Y-91157466D01*
X153103354Y-91161416D01*
X153334894Y-91191900D01*
X153334901Y-91191900D01*
X153598699Y-91191900D01*
X153598706Y-91191900D01*
X153860262Y-91157465D01*
X154115085Y-91089186D01*
X154358816Y-90988229D01*
X154587284Y-90856323D01*
X154796581Y-90695724D01*
X154983124Y-90509181D01*
X155143723Y-90299884D01*
X155275629Y-90071416D01*
X155376586Y-89827685D01*
X155444865Y-89572862D01*
X155479300Y-89311306D01*
X155479300Y-89047494D01*
X155444865Y-88785938D01*
X155376586Y-88531115D01*
X155275629Y-88287384D01*
X155275623Y-88287375D01*
X155275622Y-88287371D01*
X155143725Y-88058919D01*
X155024247Y-87903212D01*
X154983124Y-87849619D01*
X154983118Y-87849613D01*
X154983114Y-87849608D01*
X154796591Y-87663085D01*
X154796585Y-87663080D01*
X154796581Y-87663076D01*
X154587284Y-87502477D01*
X154587283Y-87502476D01*
X154587280Y-87502474D01*
X154358828Y-87370577D01*
X154358820Y-87370573D01*
X154358816Y-87370571D01*
X154115085Y-87269614D01*
X153860262Y-87201335D01*
X153860260Y-87201334D01*
X153860254Y-87201333D01*
X153598708Y-87166900D01*
X153598706Y-87166900D01*
X153334894Y-87166900D01*
X153334891Y-87166900D01*
X153073345Y-87201333D01*
X152818515Y-87269614D01*
X152574782Y-87370572D01*
X152574771Y-87370577D01*
X152346319Y-87502474D01*
X152137019Y-87663076D01*
X152137008Y-87663085D01*
X151950485Y-87849608D01*
X151950476Y-87849619D01*
X151789874Y-88058919D01*
X151657977Y-88287371D01*
X151657972Y-88287382D01*
X151657971Y-88287384D01*
X151609778Y-88403732D01*
X151557014Y-88531115D01*
X151488733Y-88785945D01*
X151454300Y-89047491D01*
X149129300Y-89047491D01*
X149094865Y-88785938D01*
X149026586Y-88531115D01*
X148925629Y-88287384D01*
X148925623Y-88287375D01*
X148925622Y-88287371D01*
X148793725Y-88058919D01*
X148753874Y-88006984D01*
X148633124Y-87849619D01*
X148633118Y-87849613D01*
X148633114Y-87849608D01*
X148446591Y-87663085D01*
X148446585Y-87663080D01*
X148446581Y-87663076D01*
X148237284Y-87502477D01*
X148237283Y-87502476D01*
X148237280Y-87502474D01*
X148008828Y-87370577D01*
X148008820Y-87370573D01*
X148008816Y-87370571D01*
X147765085Y-87269614D01*
X147510262Y-87201335D01*
X147510260Y-87201334D01*
X147510254Y-87201333D01*
X147248708Y-87166900D01*
X147248706Y-87166900D01*
X146984894Y-87166900D01*
X146984891Y-87166900D01*
X146723345Y-87201333D01*
X146468515Y-87269614D01*
X146224782Y-87370572D01*
X146224771Y-87370577D01*
X145996319Y-87502474D01*
X145787019Y-87663076D01*
X145787008Y-87663085D01*
X145600485Y-87849608D01*
X145600476Y-87849619D01*
X145439874Y-88058919D01*
X145307977Y-88287371D01*
X145307972Y-88287382D01*
X145307971Y-88287384D01*
X145259778Y-88403732D01*
X145207014Y-88531115D01*
X145138733Y-88785945D01*
X145104300Y-89047491D01*
X134275290Y-89047491D01*
X134197133Y-88969334D01*
X134197130Y-88969332D01*
X134197128Y-88969330D01*
X134004523Y-88829394D01*
X133792399Y-88721311D01*
X133792396Y-88721310D01*
X133792394Y-88721309D01*
X133565982Y-88647744D01*
X133565985Y-88647744D01*
X133522206Y-88640810D01*
X133330836Y-88610500D01*
X132292764Y-88610500D01*
X132057622Y-88647743D01*
X132057616Y-88647744D01*
X131831205Y-88721309D01*
X131831199Y-88721312D01*
X131619073Y-88829396D01*
X131426469Y-88969332D01*
X131426466Y-88969334D01*
X131258134Y-89137666D01*
X131258132Y-89137669D01*
X131118196Y-89330273D01*
X131010112Y-89542399D01*
X131010109Y-89542405D01*
X130936544Y-89768816D01*
X130936543Y-89768821D01*
X130936543Y-89768822D01*
X130899300Y-90003964D01*
X128655285Y-90003964D01*
X128650706Y-89980947D01*
X128629616Y-89874918D01*
X128565503Y-89720137D01*
X128472426Y-89580838D01*
X128472421Y-89580832D01*
X128353967Y-89462378D01*
X128353961Y-89462373D01*
X128214664Y-89369298D01*
X128214665Y-89369298D01*
X128214663Y-89369297D01*
X128074645Y-89311299D01*
X128059885Y-89305185D01*
X128059883Y-89305184D01*
X128059882Y-89305184D01*
X127977168Y-89288731D01*
X127895569Y-89272500D01*
X127895567Y-89272500D01*
X127728033Y-89272500D01*
X127728030Y-89272500D01*
X127619426Y-89294103D01*
X127563718Y-89305184D01*
X127563717Y-89305184D01*
X127563714Y-89305185D01*
X127408935Y-89369298D01*
X127269638Y-89462373D01*
X127269632Y-89462378D01*
X127151178Y-89580832D01*
X127151173Y-89580838D01*
X127058098Y-89720135D01*
X126993985Y-89874914D01*
X126961300Y-90039230D01*
X126162299Y-90039230D01*
X126129616Y-89874918D01*
X126065503Y-89720137D01*
X125972426Y-89580838D01*
X125972421Y-89580832D01*
X125853967Y-89462378D01*
X125853961Y-89462373D01*
X125714664Y-89369298D01*
X125714665Y-89369298D01*
X125714663Y-89369297D01*
X125574645Y-89311299D01*
X125559885Y-89305185D01*
X125559883Y-89305184D01*
X125559882Y-89305184D01*
X125477168Y-89288731D01*
X125395569Y-89272500D01*
X125395567Y-89272500D01*
X125228033Y-89272500D01*
X125228030Y-89272500D01*
X125119426Y-89294103D01*
X125063718Y-89305184D01*
X125063717Y-89305184D01*
X125063714Y-89305185D01*
X124908935Y-89369298D01*
X124769638Y-89462373D01*
X124769632Y-89462378D01*
X124651178Y-89580832D01*
X124651173Y-89580838D01*
X124581665Y-89684865D01*
X124527188Y-89730393D01*
X124456745Y-89739241D01*
X124392701Y-89708599D01*
X124355389Y-89648198D01*
X124350900Y-89614863D01*
X124350900Y-87686987D01*
X124351507Y-87674637D01*
X124358217Y-87606506D01*
X124364470Y-87543017D01*
X124369286Y-87518809D01*
X124405873Y-87398196D01*
X124415321Y-87375386D01*
X124474736Y-87264228D01*
X124488451Y-87243702D01*
X124568414Y-87146266D01*
X124585866Y-87128814D01*
X124683302Y-87048851D01*
X124703828Y-87035136D01*
X124814986Y-86975721D01*
X124837796Y-86966273D01*
X124958409Y-86929686D01*
X124982619Y-86924870D01*
X125114237Y-86911906D01*
X125126587Y-86911300D01*
X125186292Y-86911300D01*
X160538308Y-86911300D01*
X160598013Y-86911300D01*
X160610362Y-86911906D01*
G37*
%TD.AperFunction*%
%TD*%
M02*
