%TF.GenerationSoftware,KiCad,Pcbnew,9.0.2*%
%TF.CreationDate,2025-08-14T21:49:21-07:00*%
%TF.ProjectId,natsys_conn1,6e617473-7973-45f6-936f-6e6e312e6b69,rev?*%
%TF.SameCoordinates,Original*%
%TF.FileFunction,Legend,Bot*%
%TF.FilePolarity,Positive*%
%FSLAX46Y46*%
G04 Gerber Fmt 4.6, Leading zero omitted, Abs format (unit mm)*
G04 Created by KiCad (PCBNEW 9.0.2) date 2025-08-14 21:49:21*
%MOMM*%
%LPD*%
G01*
G04 APERTURE LIST*
%ADD10C,0.150000*%
%ADD11C,0.120000*%
G04 APERTURE END LIST*
D10*
X151160933Y-100492619D02*
X151160933Y-101206904D01*
X151160933Y-101206904D02*
X151208552Y-101349761D01*
X151208552Y-101349761D02*
X151303790Y-101445000D01*
X151303790Y-101445000D02*
X151446647Y-101492619D01*
X151446647Y-101492619D02*
X151541885Y-101492619D01*
X150684742Y-101492619D02*
X150684742Y-100492619D01*
X150684742Y-100492619D02*
X150303790Y-100492619D01*
X150303790Y-100492619D02*
X150208552Y-100540238D01*
X150208552Y-100540238D02*
X150160933Y-100587857D01*
X150160933Y-100587857D02*
X150113314Y-100683095D01*
X150113314Y-100683095D02*
X150113314Y-100825952D01*
X150113314Y-100825952D02*
X150160933Y-100921190D01*
X150160933Y-100921190D02*
X150208552Y-100968809D01*
X150208552Y-100968809D02*
X150303790Y-101016428D01*
X150303790Y-101016428D02*
X150684742Y-101016428D01*
X149732361Y-100587857D02*
X149684742Y-100540238D01*
X149684742Y-100540238D02*
X149589504Y-100492619D01*
X149589504Y-100492619D02*
X149351409Y-100492619D01*
X149351409Y-100492619D02*
X149256171Y-100540238D01*
X149256171Y-100540238D02*
X149208552Y-100587857D01*
X149208552Y-100587857D02*
X149160933Y-100683095D01*
X149160933Y-100683095D02*
X149160933Y-100778333D01*
X149160933Y-100778333D02*
X149208552Y-100921190D01*
X149208552Y-100921190D02*
X149779980Y-101492619D01*
X149779980Y-101492619D02*
X149160933Y-101492619D01*
X144226733Y-100416419D02*
X144226733Y-101130704D01*
X144226733Y-101130704D02*
X144274352Y-101273561D01*
X144274352Y-101273561D02*
X144369590Y-101368800D01*
X144369590Y-101368800D02*
X144512447Y-101416419D01*
X144512447Y-101416419D02*
X144607685Y-101416419D01*
X143750542Y-101416419D02*
X143750542Y-100416419D01*
X143750542Y-100416419D02*
X143369590Y-100416419D01*
X143369590Y-100416419D02*
X143274352Y-100464038D01*
X143274352Y-100464038D02*
X143226733Y-100511657D01*
X143226733Y-100511657D02*
X143179114Y-100606895D01*
X143179114Y-100606895D02*
X143179114Y-100749752D01*
X143179114Y-100749752D02*
X143226733Y-100844990D01*
X143226733Y-100844990D02*
X143274352Y-100892609D01*
X143274352Y-100892609D02*
X143369590Y-100940228D01*
X143369590Y-100940228D02*
X143750542Y-100940228D01*
X142226733Y-101416419D02*
X142798161Y-101416419D01*
X142512447Y-101416419D02*
X142512447Y-100416419D01*
X142512447Y-100416419D02*
X142607685Y-100559276D01*
X142607685Y-100559276D02*
X142702923Y-100654514D01*
X142702923Y-100654514D02*
X142798161Y-100702133D01*
D11*
%TO.C,JP2*%
X148927600Y-98937800D02*
X148927600Y-99537800D01*
X149627600Y-100237800D02*
X151027600Y-100237800D01*
X151027600Y-98237800D02*
X149627600Y-98237800D01*
X151727600Y-99537800D02*
X151727600Y-98937800D01*
X148927600Y-98937800D02*
G75*
G02*
X149627600Y-98237800I699999J1D01*
G01*
X149627600Y-100237800D02*
G75*
G02*
X148927600Y-99537800I-1J699999D01*
G01*
X151027600Y-98237800D02*
G75*
G02*
X151727600Y-98937800I0J-700000D01*
G01*
X151727600Y-99537800D02*
G75*
G02*
X151027600Y-100237800I-700000J0D01*
G01*
%TO.C,JP1*%
X141993400Y-98861600D02*
X141993400Y-99461600D01*
X142693400Y-100161600D02*
X144093400Y-100161600D01*
X144093400Y-98161600D02*
X142693400Y-98161600D01*
X144793400Y-99461600D02*
X144793400Y-98861600D01*
X141993400Y-98861600D02*
G75*
G02*
X142693400Y-98161600I699999J1D01*
G01*
X142693400Y-100161600D02*
G75*
G02*
X141993400Y-99461600I-1J699999D01*
G01*
X144093400Y-98161600D02*
G75*
G02*
X144793400Y-98861600I0J-700000D01*
G01*
X144793400Y-99461600D02*
G75*
G02*
X144093400Y-100161600I-700000J0D01*
G01*
%TD*%
M02*
