%TF.GenerationSoftware,KiCad,Pcbnew,9.0.2*%
%TF.CreationDate,2025-08-14T21:49:21-07:00*%
%TF.ProjectId,natsys_conn1,6e617473-7973-45f6-936f-6e6e312e6b69,rev?*%
%TF.SameCoordinates,Original*%
%TF.FileFunction,Legend,Top*%
%TF.FilePolarity,Positive*%
%FSLAX46Y46*%
G04 Gerber Fmt 4.6, Leading zero omitted, Abs format (unit mm)*
G04 Created by KiCad (PCBNEW 9.0.2) date 2025-08-14 21:49:21*
%MOMM*%
%LPD*%
G01*
G04 APERTURE LIST*
%ADD10C,0.100000*%
G04 APERTURE END LIST*
D10*
X134569219Y-95156333D02*
X135283504Y-95156333D01*
X135283504Y-95156333D02*
X135426361Y-95203952D01*
X135426361Y-95203952D02*
X135521600Y-95299190D01*
X135521600Y-95299190D02*
X135569219Y-95442047D01*
X135569219Y-95442047D02*
X135569219Y-95537285D01*
X134664457Y-94727761D02*
X134616838Y-94680142D01*
X134616838Y-94680142D02*
X134569219Y-94584904D01*
X134569219Y-94584904D02*
X134569219Y-94346809D01*
X134569219Y-94346809D02*
X134616838Y-94251571D01*
X134616838Y-94251571D02*
X134664457Y-94203952D01*
X134664457Y-94203952D02*
X134759695Y-94156333D01*
X134759695Y-94156333D02*
X134854933Y-94156333D01*
X134854933Y-94156333D02*
X134997790Y-94203952D01*
X134997790Y-94203952D02*
X135569219Y-94775380D01*
X135569219Y-94775380D02*
X135569219Y-94156333D01*
X129884219Y-100661972D02*
X129884219Y-100090544D01*
X130884219Y-100376258D02*
X129884219Y-100376258D01*
X130984219Y-89747687D02*
X130508028Y-90081020D01*
X130984219Y-90319115D02*
X129984219Y-90319115D01*
X129984219Y-90319115D02*
X129984219Y-89938163D01*
X129984219Y-89938163D02*
X130031838Y-89842925D01*
X130031838Y-89842925D02*
X130079457Y-89795306D01*
X130079457Y-89795306D02*
X130174695Y-89747687D01*
X130174695Y-89747687D02*
X130317552Y-89747687D01*
X130317552Y-89747687D02*
X130412790Y-89795306D01*
X130412790Y-89795306D02*
X130460409Y-89842925D01*
X130460409Y-89842925D02*
X130508028Y-89938163D01*
X130508028Y-89938163D02*
X130508028Y-90319115D01*
X126636600Y-95366734D02*
X126684219Y-95223877D01*
X126684219Y-95223877D02*
X126684219Y-94985782D01*
X126684219Y-94985782D02*
X126636600Y-94890544D01*
X126636600Y-94890544D02*
X126588980Y-94842925D01*
X126588980Y-94842925D02*
X126493742Y-94795306D01*
X126493742Y-94795306D02*
X126398504Y-94795306D01*
X126398504Y-94795306D02*
X126303266Y-94842925D01*
X126303266Y-94842925D02*
X126255647Y-94890544D01*
X126255647Y-94890544D02*
X126208028Y-94985782D01*
X126208028Y-94985782D02*
X126160409Y-95176258D01*
X126160409Y-95176258D02*
X126112790Y-95271496D01*
X126112790Y-95271496D02*
X126065171Y-95319115D01*
X126065171Y-95319115D02*
X125969933Y-95366734D01*
X125969933Y-95366734D02*
X125874695Y-95366734D01*
X125874695Y-95366734D02*
X125779457Y-95319115D01*
X125779457Y-95319115D02*
X125731838Y-95271496D01*
X125731838Y-95271496D02*
X125684219Y-95176258D01*
X125684219Y-95176258D02*
X125684219Y-94938163D01*
X125684219Y-94938163D02*
X125731838Y-94795306D01*
X139583466Y-89536819D02*
X139583466Y-90251104D01*
X139583466Y-90251104D02*
X139535847Y-90393961D01*
X139535847Y-90393961D02*
X139440609Y-90489200D01*
X139440609Y-90489200D02*
X139297752Y-90536819D01*
X139297752Y-90536819D02*
X139202514Y-90536819D01*
X139964419Y-89536819D02*
X140583466Y-89536819D01*
X140583466Y-89536819D02*
X140250133Y-89917771D01*
X140250133Y-89917771D02*
X140392990Y-89917771D01*
X140392990Y-89917771D02*
X140488228Y-89965390D01*
X140488228Y-89965390D02*
X140535847Y-90013009D01*
X140535847Y-90013009D02*
X140583466Y-90108247D01*
X140583466Y-90108247D02*
X140583466Y-90346342D01*
X140583466Y-90346342D02*
X140535847Y-90441580D01*
X140535847Y-90441580D02*
X140488228Y-90489200D01*
X140488228Y-90489200D02*
X140392990Y-90536819D01*
X140392990Y-90536819D02*
X140107276Y-90536819D01*
X140107276Y-90536819D02*
X140012038Y-90489200D01*
X140012038Y-90489200D02*
X139964419Y-90441580D01*
M02*
