M48
; DRILL file {KiCad 9.0.2} date 2025-08-14T21:49:22-0700
; FORMAT={-:-/ absolute / metric / decimal}
; #@! TF.CreationDate,2025-08-14T21:49:22-07:00
; #@! TF.GenerationSoftware,Kicad,Pcbnew,9.0.2
; #@! TF.FileFunction,MixedPlating,1,2
FMAT,2
METRIC
; #@! TA.AperFunction,Plated,PTH,ViaDrill
T1C0.300
; #@! TA.AperFunction,Plated,PTH,ComponentDrill
T2C0.800
; #@! TA.AperFunction,Plated,PTH,ComponentDrill
T3C1.500
; #@! TA.AperFunction,NonPlated,NPTH,ComponentDrill
T4C1.200
%
G90
G05
T1
X141.046Y-99.136
X149.682Y-97.688
T3
X147.117Y-89.179
X147.117Y-100.609
X153.467Y-89.179
X153.467Y-100.609
X159.817Y-89.179
X159.817Y-100.609
T4
X125.312Y-90.123
X125.312Y-100.123
X127.812Y-90.123
X127.812Y-100.123
X132.812Y-95.123
T2
G00X127.812Y-94.773
M15
G01X127.812Y-95.473
M16
G05
G00X132.462Y-90.123
M15
G01X133.162Y-90.123
M16
G05
G00X132.462Y-92.623
M15
G01X133.162Y-92.623
M16
G05
G00X132.462Y-97.623
M15
G01X133.162Y-97.623
M16
G05
G00X132.462Y-100.123
M15
G01X133.162Y-100.123
M16
G05
M30
